<svg width="644" height="200" viewBox="0 0 644 200" fill="none" xmlns="http://www.w3.org/2000/svg">
<path d="M65.4468 1.70996L65.6482 75.2196C65.4467 93.5466 63.03 111.269 53.1616 129.596L28.3613 175.252H48.0414L136.54 1.70996H203L84.7808 199.078H13.2852L1 1.70996H65.4468Z" fill="#0B3B45"/>
<path d="M643.544 41.8752H608.491C577.771 41.8752 560.047 68.2627 552.958 106.072L534.841 199.807H486.397L524.994 1.30927H573.438L566.349 36.3614C581.315 11.1554 598.645 1.30927 624.246 1.30927H643.544V41.8752Z" fill="#0B3B45"/>
<path d="M274.071 199.805L312.668 1.30744H361.113L355.205 32.0273C370.171 10.3658 395.378 0 421.372 0C468.241 0 490.69 30.8457 481.238 81.2577L458.001 199.805H409.95L432.006 87.1654C437.126 59.2025 424.523 40.6918 399.316 40.6918C372.14 40.6918 349.297 62.3533 343.389 91.4977L322.515 199.805H274.071Z" fill="#0B3B45"/>
<path d="M184.75 200L222.803 0.92157H274.114L236.062 200H184.75Z" fill="#0B3B45"/>
</svg>
